<?xml version="1.0" standalone="no"?>
<!DOCTYPE svg PUBLIC "-//W3C//DTD SVG 20010904//EN"
 "http://www.w3.org/TR/2001/REC-SVG-20010904/DTD/svg10.dtd">
<svg version="1.0" xmlns="http://www.w3.org/2000/svg"
 width="3000.000000pt" height="727.000000pt" viewBox="0 0 3000.000000 727.000000"
 preserveAspectRatio="xMidYMid meet">

<g transform="translate(0.000000,727.000000) scale(0.100000,-0.100000)"
fill="#000000" stroke="none">
<path d="M3400 6889 c-321 -13 -617 -61 -930 -149 -829 -235 -1483 -685 -1923
-1325 -353 -515 -525 -1045 -544 -1685 -17 -553 94 -1068 326 -1515 376 -726
963 -1240 1786 -1565 749 -296 1656 -357 2401 -160 694 183 1307 596 1722
1158 l62 84 0 606 0 607 24 52 c27 57 99 121 198 173 47 26 58 36 58 57 0 24
-2 25 -42 19 -338 -48 -1180 -48 -1515 0 -37 5 -42 4 -48 -17 -5 -14 -3 -25 4
-27 21 -7 157 -99 194 -132 21 -18 48 -52 60 -74 l22 -41 3 -912 2 -913 -78
-39 c-318 -160 -702 -266 -1137 -313 -188 -20 -662 -17 -805 5 -500 79 -937
300 -1308 662 -169 164 -287 316 -421 542 -288 487 -422 1004 -423 1633 0 249
10 397 43 598 101 615 389 1193 797 1599 198 197 388 332 647 458 354 174 661
245 1049 245 761 -1 1355 -235 1846 -729 138 -139 223 -243 335 -411 80 -120
187 -308 215 -378 10 -26 17 -31 34 -26 11 3 25 10 29 14 5 4 0 229 -10 500
l-19 493 -84 80 c-158 148 -379 301 -608 420 -569 297 -1244 436 -1962 406z"/>
<path d="M17440 6889 c-481 -20 -929 -120 -1396 -312 -608 -249 -1141 -683
-1486 -1208 -287 -437 -437 -851 -499 -1379 -18 -153 -16 -585 4 -746 77 -618
288 -1113 686 -1604 508 -627 1367 -1088 2272 -1219 317 -46 726 -57 994 -27
855 97 1545 383 2002 831 l82 80 7 297 7 297 -28 7 c-24 6 -32 3 -44 -16 -102
-155 -300 -384 -433 -501 -437 -385 -910 -567 -1608 -619 -176 -13 -471 -13
-601 1 -431 44 -835 204 -1194 473 -308 232 -541 519 -734 906 -244 490 -341
912 -341 1485 0 569 98 996 337 1475 201 404 484 739 828 981 275 193 631 340
972 400 111 20 162 23 393 24 289 0 388 -9 625 -56 736 -146 1346 -627 1732
-1365 55 -105 66 -121 84 -117 11 3 23 12 26 20 3 8 -2 232 -12 496 l-17 482
-57 58 c-177 184 -519 408 -830 544 -172 75 -509 186 -677 222 -348 75 -723
106 -1094 90z"/>
<path d="M24480 6889 c-263 -11 -531 -49 -778 -110 -165 -40 -474 -142 -631
-208 -734 -309 -1307 -835 -1654 -1518 -235 -463 -329 -871 -329 -1418 0 -611
132 -1107 426 -1603 353 -592 896 -1052 1587 -1343 495 -208 1015 -310 1579
-310 315 -1 603 34 944 111 578 132 1129 418 1458 757 l56 58 10 295 c5 162 8
296 7 297 -1 2 -15 5 -31 8 -26 6 -32 1 -64 -46 -218 -327 -568 -640 -908
-812 -377 -191 -855 -287 -1432 -287 -444 0 -818 93 -1176 291 -432 240 -738
553 -985 1008 -283 518 -402 1036 -386 1671 9 368 53 641 148 931 244 744 704
1304 1324 1609 359 177 668 250 1060 250 554 0 1055 -135 1430 -386 404 -270
713 -621 934 -1061 50 -101 51 -102 78 -92 l28 9 -18 493 -18 492 -62 63
c-181 186 -521 408 -817 535 -566 244 -1135 344 -1780 316z"/>
<path d="M9129 6745 c-3 -2 -85 -12 -184 -21 -249 -25 -936 -25 -1173 -1 -203
21 -192 21 -192 -5 0 -17 13 -30 48 -49 172 -96 216 -164 234 -359 5 -58 13
-922 17 -1920 9 -1977 6 -1883 67 -2180 70 -339 229 -680 445 -951 93 -116
284 -299 400 -381 171 -122 378 -229 574 -298 558 -196 1217 -253 1765 -154
265 48 605 179 850 329 558 340 914 942 1014 1716 29 225 35 474 41 1679 5
1255 18 2038 35 2195 15 135 51 201 143 266 40 28 87 58 105 67 22 11 32 23
32 39 0 28 -8 29 -138 6 -139 -24 -550 -24 -677 0 -122 23 -145 22 -145 -3 0
-13 12 -27 31 -38 17 -9 64 -41 104 -70 134 -96 142 -123 160 -562 16 -399 40
-2742 32 -3120 -11 -470 -70 -756 -217 -1049 -160 -321 -363 -546 -650 -724
-212 -131 -415 -196 -750 -244 -178 -24 -607 -24 -775 0 -553 83 -941 309
-1187 693 -121 188 -221 489 -263 786 -33 240 -37 449 -32 2058 3 872 10 1666
15 1765 16 289 42 343 212 441 53 31 80 53 80 65 0 17 -13 33 -21 24z"/>
<path d="M28427 6727 c-4 -11 15 -28 61 -58 97 -63 175 -143 196 -204 39 -113
41 -255 41 -2830 0 -1747 -4 -2524 -12 -2630 -13 -170 -33 -241 -85 -294 -35
-35 -121 -97 -175 -124 -24 -13 -30 -21 -26 -37 4 -17 11 -20 32 -16 85 18
388 36 615 36 274 0 763 -17 858 -29 45 -6 58 -5 63 7 8 21 8 20 -42 46 -27
13 -76 45 -111 71 -73 53 -104 108 -121 215 -25 158 -31 668 -31 2758 0 2084
5 2569 31 2747 19 134 76 209 227 296 51 30 61 42 42 54 -5 3 -89 -2 -187 -11
-310 -30 -1188 -22 -1344 12 -18 4 -28 1 -32 -9z"/>
</g>
</svg>
